<?xml version="1.0" encoding="UTF-8"?><svg id="_레이어_1" xmlns="http://www.w3.org/2000/svg" viewBox="0 0 1280 1024"><rect x="843.38" y="252.89" width="118.76" height="22.23"/><rect x="743.61" y="252.89" width="63.91" height="22.23"/><rect x="588.98" y="252.89" width="116.48" height="22.23"/><rect x="474.6" y="252.89" width="76.24" height="22.22"/><rect x="319.98" y="252.89" width="116.49" height="22.22"/><rect x="843.38" y="749.19" width="118.76" height="22.23"/><rect x="743.61" y="749.19" width="63.91" height="22.23"/><rect x="588.98" y="749.19" width="116.48" height="22.23"/><rect x="474.6" y="749.19" width="76.24" height="22.22"/><rect x="319.98" y="749.19" width="116.49" height="22.22"/><path d="m530.4,335.13c6.36-3.52,13.18-6.32,20.44-8.35v-26.23c-13.33,4.77-25.18,11.81-35.46,20.41,5.32,4.27,10.33,9.01,15.02,14.17Z"/><path d="m436.71,617.12c-.08,0-.16,0-.24,0v132.07h38.14v-137.62c-11.91,3.63-24.6,5.55-37.9,5.55Z"/><path d="m436.71,293.69c13.28,0,25.97,1.94,37.9,5.61v-24.18s-38.14,0-38.14,0v18.57c.08,0,.16,0,.24,0Z"/><path d="m799.41,452.63c2.62-1.45,5.32-2.78,8.1-3.98v-25.35c-8.42,4.18-16.13,9.31-23.13,15.16,5.32,4.27,10.34,9,15.03,14.16Z"/><path d="m474.6,548.69c0-3.4,4.47-4.41,6.01-1.38,3.1,6.08,6.66,11.89,10.63,17.39,4.18-3.62,8.07-7.62,11.65-11.99-19.32-23.35-30.03-57.04-30.03-97.29s10.71-73.95,30.03-97.29c-3.38-4.11-7.02-7.9-10.92-11.34-4.37,6.32-8.17,12.96-11.4,19.79-1.44,3.05-5.98,1.96-5.98-1.42v-30.52c-11.29-6.1-24.06-9.95-38.14-11.24v264.06c14.08-1.29,26.84-5.14,38.14-11.24v-27.51Z"/><path d="m962.14,275.12v178.33c0,2.94-3.61,4.34-5.51,2.11-24.1-28.16-57.76-44.38-96.3-44.38-5.84,0-11.49.39-16.95,1.14v28.2c1.97-.1,3.96-.15,5.97-.15,66.45,0,106.9,53.71,106.9,132.52s-40.44,132.53-106.9,132.53c-2.01,0-4-.05-5.97-.15v28.13c5.54.79,11.19,1.21,16.95,1.21,38.71,0,72.29-16.12,96.3-44.12,1.9-2.22,5.51-.82,5.51,2.12v56.57s35.86,0,35.86,0v-474.07h-35.86Z"/><path d="m699.68,354.42c-24.19-38.15-62.87-60.73-108.35-60.73-.78,0-1.57,0-2.34.02v29.49c49.08,3.58,82.55,37.88,93.95,90.07,7.24-1.35,14.83-2.08,22.77-2.08,13.28,0,25.97,1.93,37.9,5.6v-141.67s-38.14,0-38.14,0v77.6c0,3.19-4.09,4.39-5.79,1.7Z"/><path d="m799.57,693.27c-4.74,5.23-9.83,10.02-15.24,14.33,7.15,5.73,14.92,10.69,23.19,14.74v-25.18c-2.72-1.18-5.37-2.47-7.95-3.89Z"/><path d="m705.71,734.62c-.17,0-.34,0-.51,0l-.04,14.58h38.15l.09-20.04c-11.85,3.59-24.47,5.48-37.69,5.48Z"/><path d="m743.55,666.05c.01-3.4,4.48-4.39,6.01-1.37,3.11,6.12,6.69,11.97,10.69,17.51,4.18-3.62,8.07-7.63,11.65-11.99-19.32-23.35-30.02-57.04-30.02-97.29s10.7-73.94,30.02-97.29c-3.38-4.11-7.02-7.9-10.92-11.34-4.37,6.32-8.17,12.96-11.4,19.78-1.44,3.05-5.98,1.96-5.98-1.42v-30.52c-14.1-7.62-30.49-11.74-48.88-11.74-2.7,0-5.35.1-7.97.27.32,4.81.49,9.73.49,14.75,0,75.84-37.46,128.43-99.49,132.29.71,10.33,2.17,20.16,4.34,29.42,45.36-.25,83.6-22.66,107.57-60.41,1.71-2.69,5.79-1.48,5.79,1.71l-.2,146.55c14.12-1.27,26.92-5.1,38.24-11.2l.06-27.71Z"/><path d="m530.55,575.76c-4.74,5.23-9.82,10.03-15.22,14.34,10.57,8.49,22.51,15.27,35.43,19.93l.04-26.02c-7.18-2.02-13.94-4.78-20.24-8.25Z"/><path d="m588.98,293.71v-18.59s-38.14,0-38.14,0v25.43c11.61-4.16,24.34-6.59,38.14-6.84Z"/><path d="m594.94,664.68c20.7,40.75,61.95,69.73,110.27,69.93l.04-29.66c-3.43.31-6.93.47-10.52.47-53.11,0-89.97-34.31-102.64-88.32-.26,0-.51.01-.76.01-14.25,0-27.89-2.52-40.57-7.1l-.22,139.16h38.16l.23-83.14c.01-3.4,4.48-4.39,6.01-1.37Z"/><path d="m326,547.3c20.76,40.76,62.09,69.72,110.47,69.81v-29.68c-3.5.32-7.08.49-10.74.49-66.45,0-107.48-53.71-107.48-132.53s41.03-132.52,107.48-132.52c3.66,0,7.24.17,10.74.49v-29.68c-53.94.1-91.86,33.43-110.51,72.86-1.44,3.05-5.98,1.96-5.98-1.42v-90.01s-38.14,0-38.14,0v474.07h38.14v-200.5c0-3.4,4.47-4.41,6.01-1.38Z"/><path d="m760.98,464.27c6.56-9.49,14.38-18.25,23.41-25.8-12.14-9.74-25.86-17.08-40.78-21.68v35.33c6.25,3.38,12.05,7.45,17.38,12.15Z"/><path d="m807.52,722.34v26.85s35.86,0,35.86,0v-15.78c-12.69-1.81-24.73-5.62-35.86-11.07Z"/><path d="m807.52,453.45c0,2.94-3.61,4.34-5.51,2.11-.85-.99-1.72-1.97-2.59-2.94-10.49,5.8-19.71,13.55-27.52,22.99,19.17,23.34,29.73,57.04,29.73,97.29s-10.55,73.95-29.73,97.29c7.85,9.48,17.12,17.26,27.67,23.07.82-.91,1.64-1.83,2.44-2.76,1.9-2.22,5.51-.82,5.51,2.12v4.54c10.82,4.69,22.82,7.47,35.86,8.12v-264.75c-13.04.65-25.04,3.44-35.86,8.12v4.8Z"/><path d="m491.24,564.69c-5.12,4.43-10.67,8.28-16.64,11.5v35.38c14.92-4.56,28.62-11.82,40.72-21.47-9.11-7.31-17.21-15.89-24.08-25.41Z"/><path d="m760.24,682.19c-5.15,4.46-10.75,8.33-16.76,11.57l-.08,35.39c15.01-4.55,28.77-11.85,40.93-21.55-9.11-7.31-17.22-15.89-24.09-25.41Z"/><path d="m491.98,346.77c6.56-9.49,14.38-18.25,23.41-25.8-12.13-9.74-25.86-17.06-40.78-21.66v35.31c6.25,3.38,12.05,7.45,17.38,12.15Z"/><path d="m550.84,326.78v25.93c0,3.19-4.09,4.39-5.79,1.7-4.42-6.96-9.32-13.4-14.65-19.29-10.49,5.8-19.7,13.54-27.5,22.98,19.17,23.34,29.73,57.04,29.73,97.29s-10.55,73.95-29.73,97.29c7.84,9.48,17.11,17.25,27.65,23.06,5.27-5.82,10.12-12.18,14.49-19.06,1.71-2.69,5.79-1.48,5.79,1.71l-.04,25.6c9.18,2.57,19.05,3.92,29.56,3.92,2.51,0,4.97-.09,7.41-.24-.33-4.82-.5-9.75-.5-14.79,0-75.61,37.76-128.11,99.5-132.25-.65-9.58-1.93-18.73-3.82-27.38-42.04,7.86-72.04,37.1-87.97,70.79-1.44,3.05-5.98,1.96-5.98-1.42v-159.44c-2.83-.21-5.71-.32-8.64-.32-10.49,0-20.34,1.34-29.5,3.91Z"/><path d="m843.38,412.32v-137.2h-35.86v148.18c10.82-5.38,22.79-9.2,35.86-10.98Z"/></svg>