<?xml version="1.0" encoding="UTF-8"?><svg id="_레이어_1" xmlns="http://www.w3.org/2000/svg" viewBox="0 0 1920 1080"><rect x="1170.29" y="272.19" width="122.67" height="22.96"/><rect x="1067.23" y="272.19" width="66.02" height="22.96"/><rect x="907.52" y="272.19" width="120.32" height="22.96"/><rect x="789.37" y="272.19" width="78.75" height="22.95"/><rect x="629.66" y="272.19" width="120.32" height="22.95"/><rect x="1170.29" y="784.84" width="122.67" height="22.96"/><rect x="1067.23" y="784.84" width="66.02" height="22.96"/><rect x="907.52" y="784.84" width="120.32" height="22.96"/><rect x="789.37" y="784.84" width="78.75" height="22.95"/><rect x="629.66" y="784.84" width="120.32" height="22.95"/><path d="m847,357.15c6.57-3.63,13.62-6.53,21.12-8.63v-27.1c-13.77,4.93-26.01,12.2-36.63,21.09,5.5,4.41,10.67,9.3,15.51,14.64Z"/><path d="m750.22,648.42c-.08,0-.16,0-.25,0v136.42h39.39v-142.15c-12.3,3.75-25.41,5.73-39.15,5.73Z"/><path d="m750.22,314.34c13.72,0,26.83,2,39.15,5.8v-24.98s-39.39,0-39.39,0v19.18c.08,0,.16,0,.25,0Z"/><path d="m1124.88,478.51c2.71-1.5,5.5-2.87,8.37-4.11v-26.18c-8.69,4.32-16.67,9.62-23.89,15.66,5.5,4.41,10.68,9.3,15.52,14.63Z"/><path d="m789.37,577.73c0-3.52,4.62-4.56,6.21-1.43,3.2,6.28,6.88,12.28,10.98,17.96,4.32-3.74,8.33-7.87,12.04-12.39-19.96-24.11-31.02-58.92-31.02-100.5s11.06-76.38,31.02-100.5c-3.49-4.24-7.25-8.16-11.28-11.72-4.51,6.53-8.44,13.39-11.77,20.44-1.49,3.15-6.17,2.03-6.17-1.47v-31.52c-11.66-6.3-24.85-10.28-39.39-11.61v272.76c14.54-1.34,27.73-5.31,39.39-11.61v-28.41Z"/><path d="m1292.96,295.16v184.2c0,3.03-3.73,4.48-5.69,2.18-24.89-29.08-59.66-45.84-99.47-45.84-6.03,0-11.87.4-17.51,1.17v29.13c2.03-.1,4.09-.15,6.17-.15,68.64,0,110.42,55.48,110.42,136.89s-41.78,136.89-110.42,136.89c-2.08,0-4.14-.05-6.17-.15v29.06c5.72.82,11.56,1.25,17.51,1.25,39.99,0,74.67-16.65,99.47-45.57,1.96-2.29,5.69-.84,5.69,2.19v58.43s37.04,0,37.04,0v-489.68h-37.04Z"/><path d="m1021.85,377.07c-24.99-39.4-64.94-62.73-111.92-62.73-.81,0-1.62,0-2.42.02v30.46c50.69,3.7,85.27,39.13,97.04,93.04,7.48-1.4,15.32-2.15,23.52-2.15,13.71,0,26.83,1.99,39.15,5.78v-146.33s-39.4,0-39.4,0v80.15c0,3.29-4.22,4.53-5.98,1.76Z"/><path d="m1125.04,727.08c-4.9,5.4-10.16,10.35-15.74,14.8,7.38,5.92,15.41,11.04,23.95,15.22v-26.01c-2.81-1.22-5.55-2.56-8.21-4.02Z"/><path d="m1028.08,769.79c-.17,0-.35,0-.52,0l-.04,15.06h39.41l.09-20.7c-12.24,3.71-25.28,5.66-38.93,5.66Z"/><path d="m1067.17,698.96c.01-3.51,4.62-4.54,6.21-1.42,3.21,6.32,6.91,12.37,11.04,18.08,4.32-3.74,8.33-7.88,12.04-12.39-19.96-24.11-31.01-58.92-31.01-100.49s11.06-76.38,31.01-100.49c-3.49-4.25-7.25-8.16-11.28-11.72-4.51,6.53-8.44,13.39-11.77,20.44-1.49,3.15-6.17,2.03-6.17-1.47v-31.52c-14.56-7.87-31.49-12.12-50.49-12.12-2.79,0-5.53.1-8.23.28.34,4.97.51,10.05.51,15.24,0,78.34-38.69,132.66-102.77,136.65.73,10.68,2.24,20.83,4.48,30.38,46.85-.26,86.36-23.41,111.11-62.4,1.76-2.77,5.98-1.53,5.98,1.76l-.21,151.38c14.58-1.31,27.8-5.27,39.5-11.57l.07-28.62Z"/><path d="m847.16,605.7c-4.9,5.4-10.14,10.36-15.73,14.81,10.92,8.77,23.25,15.78,36.59,20.59l.04-26.87c-7.42-2.08-14.4-4.94-20.91-8.52Z"/><path d="m907.52,314.36v-19.2s-39.4,0-39.4,0v26.27c11.99-4.29,25.14-6.81,39.4-7.07Z"/><path d="m913.66,697.55c21.38,42.09,63.99,72.02,113.9,72.23l.04-30.63c-3.54.32-7.16.49-10.86.49-54.86,0-92.93-35.44-106.02-91.23-.26,0-.53.01-.79.01-14.72,0-28.81-2.6-41.91-7.33l-.22,143.75h39.41l.24-85.88c.01-3.51,4.62-4.54,6.21-1.42Z"/><path d="m635.87,576.3c21.44,42.1,64.13,72.02,114.11,72.11v-30.66c-3.62.33-7.31.51-11.1.51-68.64,0-111.02-55.48-111.02-136.89s42.38-136.89,111.02-136.89c3.78,0,7.48.18,11.1.51v-30.66c-55.71.1-94.89,34.53-114.15,75.26-1.49,3.15-6.17,2.03-6.17-1.47v-92.98s-39.39,0-39.39,0v489.68h39.39v-207.11c0-3.52,4.62-4.56,6.21-1.43Z"/><path d="m1085.18,490.54c6.77-9.8,14.85-18.85,24.18-26.65-12.54-10.06-26.71-17.64-42.13-22.39v36.49c6.46,3.49,12.45,7.69,17.95,12.55Z"/><path d="m1133.24,757.1v27.74s37.04,0,37.04,0v-16.3c-13.11-1.87-25.55-5.8-37.04-11.44Z"/><path d="m1133.24,479.36c0,3.03-3.73,4.48-5.69,2.18-.88-1.03-1.77-2.04-2.68-3.03-10.84,5.99-20.36,13.99-28.42,23.74,19.8,24.11,30.7,58.92,30.7,100.49s-10.9,76.38-30.7,100.49c8.11,9.8,17.68,17.83,28.58,23.83.85-.94,1.69-1.89,2.52-2.85,1.96-2.29,5.69-.84,5.69,2.19v4.69c11.18,4.84,23.57,7.72,37.04,8.39v-273.47c-13.47.67-25.86,3.55-37.04,8.39v4.96Z"/><path d="m806.56,594.26c-5.29,4.58-11.03,8.55-17.19,11.88v36.54c15.42-4.71,29.56-12.21,42.06-22.18-9.41-7.55-17.78-16.41-24.87-26.24Z"/><path d="m1084.41,715.63c-5.32,4.61-11.1,8.61-17.31,11.95l-.09,36.55c15.5-4.7,29.72-12.24,42.28-22.26-9.41-7.56-17.78-16.41-24.88-26.25Z"/><path d="m807.32,369.17c6.77-9.8,14.85-18.85,24.18-26.65-12.53-10.06-26.71-17.63-42.12-22.38v36.48c6.46,3.49,12.45,7.69,17.95,12.55Z"/><path d="m868.12,348.53v26.79c0,3.29-4.22,4.53-5.98,1.76-4.56-7.19-9.63-13.84-15.14-19.92-10.83,5.99-20.35,13.99-28.41,23.73,19.81,24.11,30.71,58.92,30.71,100.5s-10.9,76.38-30.71,100.5c8.1,9.79,17.67,17.82,28.56,23.82,5.45-6.01,10.45-12.58,14.96-19.69,1.76-2.77,5.98-1.53,5.98,1.76l-.04,26.45c9.48,2.66,19.68,4.05,30.53,4.05,2.59,0,5.14-.09,7.65-.25-.34-4.98-.52-10.08-.52-15.28,0-78.1,39-132.33,102.78-136.61-.67-9.9-2-19.34-3.95-28.29-43.42,8.12-74.41,38.32-90.87,73.12-1.49,3.15-6.17,2.03-6.17-1.47v-164.69c-2.92-.21-5.89-.33-8.92-.33-10.83,0-21.01,1.39-30.48,4.03Z"/><path d="m1170.29,436.88v-141.72h-37.04v153.06c11.18-5.56,23.54-9.5,37.04-11.34Z"/></svg>