<?xml version="1.0" encoding="UTF-8"?><svg id="_레이어_1" xmlns="http://www.w3.org/2000/svg" viewBox="0 0 716.15 518.54"><defs><style>.cls-1{fill:#fff;}</style></defs><path class="cls-1" d="m142.38,67.6v394.59h407.33V67.6H142.38Zm384.31,159.36c0,1.87-2.32,2.75-3.54,1.34-15.47-17.89-37.08-28.19-61.82-28.19-34.7,0-59.1,21.2-71.09,46.29-.93,1.94-3.84,1.25-3.84-.9V94.69c0-2.25,1.82-4.07,4.07-4.07h132.14c2.25,0,4.07,1.82,4.07,4.07v132.28Zm-3.78,75.89c0,50.07-25.96,84.2-68.62,84.2s-68.99-34.12-68.99-84.2,26.33-84.2,68.99-84.2,68.62,34.12,68.62,84.2ZM169.47,90.62h188.4c2.25,0,4.07,1.82,4.07,4.07v68.28c0,2.03-2.62,2.79-3.72,1.08-15.53-24.23-40.36-38.59-69.55-38.59-34.7,0-59.1,21.2-71.09,46.29-.93,1.94-3.84,1.25-3.84-.9v-48.29s-24.48,0-24.48,0v312.54c0,2.25-1.82,4.07-4.07,4.07h-15.73c-2.25,0-4.07-1.82-4.07-4.07V94.69c0-2.25,1.82-4.07,4.07-4.07Zm180.77,137.58c0,50.07-25.96,84.2-68.62,84.2s-68.99-34.12-68.99-84.2,26.34-84.2,68.99-84.2,68.62,34.12,68.62,84.2Zm-136.5,206.9v-147.63c0-2.16,2.87-2.8,3.86-.88,13.35,25.94,39.94,44.36,71.06,44.36,29.33,0,54.07-14.27,69.54-38.39,1.09-1.71,3.72-.94,3.72,1.08l-.2,111.95h24.48l.17-43.55c0-2.16,2.87-2.79,3.86-.87,13.33,25.98,39.95,44.43,71.11,44.43,24.85,0,46.4-10.24,61.82-28.03,1.22-1.41,3.53-.52,3.53,1.34v56.19c0,2.25-1.82,4.07-4.07,4.07H217.81c-2.25,0-4.07-1.82-4.07-4.07Z"/></svg>